<svg width="1195" height="1110" viewBox="0 0 1195 1110" fill="none" xmlns="http://www.w3.org/2000/svg">
<g style="mix-blend-mode:multiply">
<ellipse cx="724.562" cy="423.373" rx="135" ry="136" transform="rotate(-45 724.562 423.373)" fill="#1AC8ED"/>
</g>
<g style="mix-blend-mode:multiply">
<ellipse cx="650.669" cy="701.62" rx="135" ry="136.5" transform="rotate(-45 650.669 701.62)" fill="#E56399"/>
</g>
<g style="mix-blend-mode:multiply">
<circle cx="554.856" cy="689.245" r="226" transform="rotate(-45 554.856 689.245)" fill="#FAD204"/>
</g>
<g style="mix-blend-mode:multiply">
<ellipse cx="878.357" cy="357.259" rx="154.5" ry="154" transform="rotate(-45 878.357 357.259)" fill="#03CEA4"/>
</g>
<g style="mix-blend-mode:multiply">
<ellipse cx="551.674" cy="372.815" rx="154.5" ry="155" transform="rotate(-45 551.674 372.815)" fill="#E40066"/>
</g>
<g style="mix-blend-mode:multiply">
<ellipse cx="256.103" cy="854.355" rx="181" ry="180.5" transform="rotate(-45 256.103 854.355)" fill="#EB9FEF"/>
</g>
<g style="mix-blend-mode:multiply">
<ellipse cx="757.442" cy="596.968" rx="113.5" ry="114" transform="rotate(-45 757.442 596.968)" fill="#2DC7FF"/>
</g>
<g style="mix-blend-mode:multiply">
<ellipse cx="1002.1" cy="192.503" rx="135.5" ry="136" transform="rotate(-45 1002.1 192.503)" fill="#FF6B35"/>
</g>
<g style="mix-blend-mode:multiply">
<ellipse cx="532.582" cy="565.148" rx="172" ry="171.5" transform="rotate(-45 532.582 565.148)" fill="#6665DD"/>
</g>
</svg>
