<svg width="146" height="40" viewBox="0 0 146 40" fill="none" xmlns="http://www.w3.org/2000/svg">
<path d="M48.5609 15.4867V17.3604H54.8057V20.7434H48.5609V26.2397H44.6579V11.9072H55.2379V15.4915H48.5609V15.4867Z" fill="white"/>
<path d="M68.1782 26.2348H64.1591C63.9825 25.8514 63.9035 25.4106 63.8849 24.7876L63.8245 23.1584C63.7641 21.5292 63.0253 21.2848 61.9334 21.2848H59.9029V26.2348H55.9999V11.9023H62.8302C66.617 11.9023 68.0017 13.9149 68.0017 16.1479C68.0017 17.5376 67.3186 18.8266 65.8364 19.5118C67.458 20.1347 67.6904 21.3423 67.7508 22.8709L67.8298 24.7828C67.8483 25.3866 67.9831 25.8898 68.1782 26.2348ZM62.2447 18.3426C63.397 18.3426 63.9825 17.7388 63.9825 16.6942C63.9825 15.6687 63.397 15.041 62.2447 15.041H59.9029V18.3426H62.2447Z" fill="white"/>
<path d="M73.0061 15.4866V17.3794H79.4461V20.7193H73.0061V22.6505H80.0733V26.2348H69.1031V11.9023H80.0733V15.4866H73.0061Z" fill="white"/>
<path d="M94.7699 11.9023L89.6773 20.7193V26.2348H85.7743V20.7193L80.6028 11.9023H84.9937L85.8905 13.5124C86.5363 14.6816 87.1775 15.846 87.8048 17.0152C88.3903 15.8269 89.0361 14.6002 89.6402 13.4932L90.4998 11.9023H94.7699Z" fill="white"/>
<path d="M93.8591 21.5242H97.6088C97.6459 23.2157 98.7193 23.4984 100.225 23.4984C101.554 23.4984 102.176 23.0144 102.176 22.2094C102.176 21.3852 101.688 21.1025 99.9878 20.8197L98.8958 20.6377C95.7548 20.1153 94.0728 18.6059 94.0728 16.0087C94.0728 13.5313 95.871 11.5811 99.774 11.5811C103.445 11.5811 105.55 13.172 105.708 16.3106H102.037C101.976 15.1845 101.354 14.6383 99.8298 14.6383C98.5985 14.6383 98.0548 15.0791 98.0548 15.8266C98.0548 16.694 98.7007 16.9958 100.085 17.2354L101.238 17.4367C104.634 18.0213 106.195 19.3486 106.195 21.9075C106.195 25.1085 103.696 26.5556 100.067 26.5556C95.871 26.5556 93.8591 24.4616 93.8591 21.5242Z" fill="white"/>
<path d="M106.298 19.0658C106.298 14.4944 109.267 11.5762 113.597 11.5762C117.909 11.5762 120.897 14.4944 120.897 19.0658C120.897 23.6373 117.909 26.5555 113.597 26.5555C109.267 26.5555 106.298 23.6373 106.298 19.0658ZM116.836 19.0658C116.836 16.5309 115.549 15.0598 113.597 15.0598C111.646 15.0598 110.359 16.5309 110.359 19.0658C110.359 21.6199 111.646 23.0718 113.597 23.0718C115.549 23.0718 116.836 21.6247 116.836 19.0658Z" fill="white"/>
<path d="M125.706 15.4867V17.3604H131.951V20.7434H125.706V26.2397H121.803V11.9072H132.383V15.4915H125.706V15.4867Z" fill="white"/>
<path d="M145.003 15.4866H140.905V26.2348H137.002V15.4866H132.903V11.9023H145.003V15.4866Z" fill="white"/>
<path d="M0.00268555 18.97L18.7924 0.107071L37.5821 18.97L18.7924 37.8329L0.00268555 18.97Z" fill="#18E8A4"/>
<path d="M32.3602 18.908L29.7869 16.3157L20.6837 25.4912V20.3111L27.2183 13.728L24.6496 11.1402L20.6837 15.1356V7.9021H17.0498V15.1356L13.0838 11.1402L10.5106 13.728L17.0498 20.3111V40.0001H20.6837V30.6713L32.3602 18.908Z" fill="#020213"/>
</svg>
